D:\school\WTK\thesis\model\3dpredictsim\Results\batch_windlass\Pog_s1_tmt_aCst_d05_k800_WL30_ig24_act_TTC_GRF.mot
nRows=20
nColumns=19

name D:\school\WTK\thesis\model\3dpredictsim\Results\batch_windlass\Pog_s1_tmt_aCst_d05_k800_WL30_ig24_act_TTC_GRF.mot
datacolumns 19
datarows 20
range 0.6102355033 0.8421249945
endheader
time 	ground_force_vx	ground_force_vy	ground_force_vz	ground_force_px	ground_force_py	ground_force_pz	1_ground_force_vx	1_ground_force_vy	1_ground_force_vz	1_ground_force_px	1_ground_force_py	1_ground_force_pz	ground_torque_x	ground_torque_y	ground_torque_z	1_ground_torque_x	1_ground_torque_y	1_ground_torque_z
        0.6102355033	       82.4324748906	      364.6214100688	        3.4808059980	        0.3948236916	        0.0000000000	        0.0334364360	      -54.4298831299	       37.9514917786	       -8.1870359637	        0.9239127238	        0.0000000000	       -0.0587167114	        0.0000000000	        0.0000000000	        0.0000000000	        0.0000000000	        0.0000000000	        0.0000000000	
        0.6224402133	       50.1084848830	      261.7844782527	        9.4468703550	        0.4055839246	        0.0000000000	        0.0287430008	     -122.3290262154	      103.5544107054	      -23.2172732030	        0.9375973158	        0.0000000000	       -0.0572551193	        0.0000000000	        0.0000000000	        0.0000000000	        0.0000000000	        0.0000000000	        0.0000000000	
        0.6346449234	       33.8217241412	      208.4149367483	       16.2180562538	        0.4109396055	        0.0000000000	        0.0262401965	     -128.3138823821	      265.3465202710	      -29.4216069928	        0.9512064869	        0.0000000000	       -0.0572838060	        0.0000000000	        0.0000000000	        0.0000000000	        0.0000000000	        0.0000000000	        0.0000000000	
        0.6468496335	       30.2089100349	      164.6250304774	       13.4581133180	        0.4110825221	        0.0000000000	        0.0261694366	     -102.4866316768	      619.5010681304	       12.8012107196	        0.9658452754	        0.0000000000	       -0.0591729197	        0.0000000000	        0.0000000000	        0.0000000000	        0.0000000000	        0.0000000000	        0.0000000000	
        0.6590543435	       16.7353748161	      105.9670265065	       12.1855048563	        0.4109122191	        0.0000000000	        0.0263306862	     -128.9275558691	      855.2756857238	       26.0787989854	        0.9737406110	        0.0000000000	       -0.0602886001	        0.0000000000	        0.0000000000	        0.0000000000	        0.0000000000	        0.0000000000	        0.0000000000	
        0.6712590536	       -2.1037095548	       38.2729666534	        7.0637024449	        0.4094378471	        0.0000000000	        0.0266048821	     -157.4458891702	      939.7139916249	       29.3959529990	        0.9819784145	        0.0000000000	       -0.0603229276	        0.0000000000	        0.0000000000	        0.0000000000	        0.0000000000	        0.0000000000	        0.0000000000	
        0.6834637637	       -0.4067642238	        0.4116295709	       -0.0139162462	        0.0000000000	        0.0000000000	        0.0000000000	     -161.2151341409	      948.9157039498	       27.0090766463	        0.9914938702	        0.0000000000	       -0.0595487193	        0.0000000000	        0.0000000000	        0.0000000000	        0.0000000000	        0.0000000000	        0.0000000000	
        0.6956684737	       -0.9423430959	        0.8042724031	       -0.0833227455	        0.0000000000	        0.0000000000	        0.0000000000	     -147.2195793537	      884.5117528465	       23.2787991522	        0.9991685404	        0.0000000000	       -0.0586214158	        0.0000000000	        0.0000000000	        0.0000000000	        0.0000000000	        0.0000000000	        0.0000000000	
        0.7078731838	       -0.8926017438	        0.6598094047	       -0.0847378542	        0.0000000000	        0.0000000000	        0.0000000000	     -125.0227153237	      807.7320527969	       20.4674316063	        1.0035273758	        0.0000000000	       -0.0580132559	        0.0000000000	        0.0000000000	        0.0000000000	        0.0000000000	        0.0000000000	        0.0000000000	
        0.7200778939	       -0.4140856824	        0.2764857953	       -0.0370138098	        0.0000000000	        0.0000000000	        0.0000000000	     -106.5508948910	      753.2662112925	       18.2012172872	        1.0073862969	        0.0000000000	       -0.0576538895	        0.0000000000	        0.0000000000	        0.0000000000	        0.0000000000	        0.0000000000	        0.0000000000	
        0.7322826039	       -0.0771927120	        0.0480218758	       -0.0056623234	        0.0000000000	        0.0000000000	        0.0000000000	      -91.3506033988	      715.2801835481	       17.1868475590	        1.0107642452	        0.0000000000	       -0.0574053400	        0.0000000000	        0.0000000000	        0.0000000000	        0.0000000000	        0.0000000000	        0.0000000000	
        0.7444873140	       -0.1758267434	        0.1045688590	       -0.0103369917	        0.0000000000	        0.0000000000	        0.0000000000	      -78.8297250111	      686.7250673300	       18.3033104367	        1.0139918491	        0.0000000000	       -0.0572086793	        0.0000000000	        0.0000000000	        0.0000000000	        0.0000000000	        0.0000000000	        0.0000000000	
        0.7566920241	       -0.1256555694	        0.0712068523	       -0.0068148507	        0.0000000000	        0.0000000000	        0.0000000000	      -66.9498614347	      663.2739009720	       19.8490402891	        1.0172750218	        0.0000000000	       -0.0570583260	        0.0000000000	        0.0000000000	        0.0000000000	        0.0000000000	        0.0000000000	        0.0000000000	
        0.7688967341	       -0.0654508113	        0.0349662746	       -0.0037617247	        0.0000000000	        0.0000000000	        0.0000000000	      -56.2631276909	      642.1419785285	       20.0240199971	        1.0208162117	        0.0000000000	       -0.0569412566	        0.0000000000	        0.0000000000	        0.0000000000	        0.0000000000	        0.0000000000	        0.0000000000	
        0.7811014442	       -0.0370641148	        0.0187917962	       -0.0022101728	        0.0000000000	        0.0000000000	        0.0000000000	      -46.5753848240	      624.8221714427	       20.4319978560	        1.0252143682	        0.0000000000	       -0.0567555370	        0.0000000000	        0.0000000000	        0.0000000000	        0.0000000000	        0.0000000000	        0.0000000000	
        0.7933061543	       -0.0257485161	        0.0124891259	       -0.0015637961	        0.0000000000	        0.0000000000	        0.0000000000	      -39.6565027025	      611.5750719671	       20.6923875971	        1.0304601314	        0.0000000000	       -0.0564470205	        0.0000000000	        0.0000000000	        0.0000000000	        0.0000000000	        0.0000000000	        0.0000000000	
        0.8055108643	       -0.0225720779	        0.0105472501	       -0.0013695057	        0.0000000000	        0.0000000000	        0.0000000000	      -33.8868502118	      602.0991708572	       20.7833984988	        1.0362706082	        0.0000000000	       -0.0560254353	        0.0000000000	        0.0000000000	        0.0000000000	        0.0000000000	        0.0000000000	        0.0000000000	
        0.8177155744	       -0.0245478678	        0.0111077122	       -0.0014487473	        0.0000000000	        0.0000000000	        0.0000000000	      -29.6291199220	      595.2976473193	       20.4286416359	        1.0423635689	        0.0000000000	       -0.0555123283	        0.0000000000	        0.0000000000	        0.0000000000	        0.0000000000	        0.0000000000	        0.0000000000	
        0.8299202845	       -0.0317697396	        0.0139748648	       -0.0017812756	        0.0000000000	        0.0000000000	        0.0000000000	      -26.8312185883	      591.2790460747	       20.1108123371	        1.0483959532	        0.0000000000	       -0.0549463293	        0.0000000000	        0.0000000000	        0.0000000000	        0.0000000000	        0.0000000000	        0.0000000000	
        0.8421249945	       -0.0473108337	        0.0202982331	       -0.0024852556	        0.0000000000	        0.0000000000	        0.0000000000	      -23.8834116986	      588.7304949834	       19.9521776398	        1.0542887227	        0.0000000000	       -0.0543493936	        0.0000000000	        0.0000000000	        0.0000000000	        0.0000000000	        0.0000000000	        0.0000000000	
